<svg width="145" height="47" viewBox="0 0 145 47" fill="none" xmlns="http://www.w3.org/2000/svg">
<path d="M56.7617 33V15.8125H61.9961L63.4414 26.291L64.877 15.8125H70.1602V33H67.0156V20.6172L65.043 33H61.957L59.8672 20.6172V33H56.7617ZM74.4473 33.1562C73.666 33.1562 73.0671 32.9935 72.6504 32.668C72.2402 32.3424 71.9603 31.89 71.8105 31.3105C71.6608 30.7246 71.5859 30.041 71.5859 29.2598V18.3516H75.1016V28.8496C75.1016 29.4355 75.1471 29.8457 75.2383 30.0801C75.3294 30.3079 75.5443 30.4219 75.8828 30.4219C76.2474 30.4219 76.4753 30.2591 76.5664 29.9336C76.6641 29.6081 76.7129 29.1882 76.7129 28.6738V18.3516H80.1992V33H76.7031V31.4375C76.4818 31.9974 76.2148 32.4238 75.9023 32.7168C75.5964 33.0098 75.1113 33.1562 74.4473 33.1562ZM85.6191 33.1562C82.7285 33.1562 81.2832 31.6914 81.2832 28.7617V27.5996H84.7988V29.3184C84.7988 29.6504 84.8639 29.9108 84.9941 30.0996C85.1243 30.2884 85.3327 30.3828 85.6191 30.3828C86.127 30.3828 86.3809 30.002 86.3809 29.2402C86.3809 28.6022 86.2474 28.127 85.9805 27.8145C85.7135 27.4954 85.388 27.1895 85.0039 26.8965L83.1387 25.4609C82.5527 25.0052 82.1068 24.5234 81.8008 24.0156C81.4948 23.5078 81.3418 22.8014 81.3418 21.8965C81.3418 21.0566 81.5404 20.3633 81.9375 19.8164C82.3411 19.2695 82.8717 18.8626 83.5293 18.5957C84.1934 18.3288 84.9095 18.1953 85.6777 18.1953C88.5163 18.1953 89.9355 19.6113 89.9355 22.4434V22.7168H86.3223V22.1602C86.3223 21.8672 86.2702 21.584 86.166 21.3105C86.0684 21.0371 85.873 20.9004 85.5801 20.9004C85.0853 20.9004 84.8379 21.1608 84.8379 21.6816C84.8379 22.209 85.0462 22.6224 85.4629 22.9219L87.6309 24.5039C88.3079 24.9922 88.8743 25.5716 89.3301 26.2422C89.7923 26.9128 90.0234 27.8047 90.0234 28.918C90.0234 30.2982 89.6296 31.3496 88.8418 32.0723C88.0605 32.7949 86.9863 33.1562 85.6191 33.1562ZM91.0781 17.4531V14.543H94.5742V17.4531H91.0781ZM91.0781 33V18.3516H94.5742V33H91.0781ZM100.365 33.1562C98.7246 33.1562 97.5592 32.7363 96.8691 31.8965C96.1855 31.0566 95.8438 29.8229 95.8438 28.1953V23.6836C95.8438 22.4596 95.974 21.4408 96.2344 20.627C96.4948 19.8132 96.9505 19.2044 97.6016 18.8008C98.2526 18.3971 99.1576 18.1953 100.316 18.1953C101.124 18.1953 101.846 18.3385 102.484 18.625C103.129 18.9115 103.637 19.3314 104.008 19.8848C104.379 20.4382 104.564 21.1152 104.564 21.916V24.1523H101V22.1016C101 21.763 100.951 21.4798 100.854 21.252C100.756 21.0176 100.544 20.9004 100.219 20.9004C99.6458 20.9004 99.3594 21.3073 99.3594 22.1211V29.2207C99.3594 29.5202 99.4245 29.7969 99.5547 30.0508C99.6849 30.2982 99.8997 30.4219 100.199 30.4219C100.505 30.4219 100.717 30.3014 100.834 30.0605C100.958 29.8132 101.02 29.5267 101.02 29.2012V26.7402H104.564V29.2988C104.564 30.1061 104.382 30.7995 104.018 31.3789C103.66 31.9518 103.165 32.3913 102.533 32.6973C101.902 33.0033 101.179 33.1562 100.365 33.1562ZM109.926 33.1562C108.357 33.1562 107.224 32.7656 106.527 31.9844C105.837 31.2031 105.492 29.9596 105.492 28.2539V26.5742H108.891V28.7227C108.891 29.1198 108.949 29.4323 109.066 29.6602C109.19 29.8815 109.402 29.9922 109.701 29.9922C110.014 29.9922 110.229 29.901 110.346 29.7188C110.469 29.5365 110.531 29.237 110.531 28.8203C110.531 28.293 110.479 27.8535 110.375 27.502C110.271 27.1439 110.089 26.8053 109.828 26.4863C109.574 26.1608 109.219 25.7832 108.764 25.3535L107.221 23.8887C106.068 22.8014 105.492 21.5579 105.492 20.1582C105.492 18.6934 105.831 17.5768 106.508 16.8086C107.191 16.0404 108.178 15.6562 109.467 15.6562C111.042 15.6562 112.159 16.0762 112.816 16.916C113.48 17.7559 113.812 19.0319 113.812 20.7441H110.316V19.5625C110.316 19.3281 110.248 19.1458 110.111 19.0156C109.981 18.8854 109.802 18.8203 109.574 18.8203C109.301 18.8203 109.099 18.8984 108.969 19.0547C108.845 19.2044 108.783 19.3997 108.783 19.6406C108.783 19.8815 108.848 20.1419 108.979 20.4219C109.109 20.7018 109.366 21.0241 109.75 21.3887L111.732 23.293C112.13 23.6706 112.494 24.071 112.826 24.4941C113.158 24.9108 113.425 25.3991 113.627 25.959C113.829 26.5124 113.93 27.1895 113.93 27.9902C113.93 29.6048 113.63 30.8711 113.031 31.7891C112.439 32.7005 111.404 33.1562 109.926 33.1562ZM114.74 35.4414V33.2246H116.42C116.674 33.2246 116.801 33.1367 116.801 32.9609C116.801 32.8698 116.791 32.7754 116.771 32.6777L114.477 18.3516H117.826L118.803 29.1328L119.955 18.3516H123.324L120.609 33.7617C120.512 34.3151 120.323 34.7318 120.043 35.0117C119.77 35.2982 119.317 35.4414 118.686 35.4414H114.74ZM124.242 33V18.3516H127.738V20.2168C127.868 19.6569 128.109 19.1816 128.461 18.791C128.819 18.3939 129.314 18.1953 129.945 18.1953C130.961 18.1953 131.697 18.5078 132.152 19.1328C132.615 19.7578 132.846 20.6139 132.846 21.7012V33H129.398V22.0625C129.398 21.776 129.34 21.5124 129.223 21.2715C129.105 21.0241 128.904 20.9004 128.617 20.9004C128.35 20.9004 128.152 20.9948 128.021 21.1836C127.898 21.3659 127.82 21.597 127.787 21.877C127.755 22.1504 127.738 22.4238 127.738 22.6973V33H124.242ZM138.627 33.1562C136.986 33.1562 135.821 32.7363 135.131 31.8965C134.447 31.0566 134.105 29.8229 134.105 28.1953V23.6836C134.105 22.4596 134.236 21.4408 134.496 20.627C134.757 19.8132 135.212 19.2044 135.863 18.8008C136.514 18.3971 137.419 18.1953 138.578 18.1953C139.385 18.1953 140.108 18.3385 140.746 18.625C141.391 18.9115 141.898 19.3314 142.27 19.8848C142.641 20.4382 142.826 21.1152 142.826 21.916V24.1523H139.262V22.1016C139.262 21.763 139.213 21.4798 139.115 21.252C139.018 21.0176 138.806 20.9004 138.48 20.9004C137.908 20.9004 137.621 21.3073 137.621 22.1211V29.2207C137.621 29.5202 137.686 29.7969 137.816 30.0508C137.947 30.2982 138.161 30.4219 138.461 30.4219C138.767 30.4219 138.979 30.3014 139.096 30.0605C139.219 29.8132 139.281 29.5267 139.281 29.2012V26.7402H142.826V29.2988C142.826 30.1061 142.644 30.7995 142.279 31.3789C141.921 31.9518 141.426 32.3913 140.795 32.6973C140.163 33.0033 139.441 33.1562 138.627 33.1562Z" fill="white"/>
<path d="M23.57 1L23.4697 1L23.57 9.542L23.57 1Z" fill="white" stroke="white"/>
<path d="M25.6066 3.80389L25.3779 3.71936L24.7091 9.31335L25.6066 3.80389Z" fill="white" stroke="white"/>
<path d="M27.6504 2.69903L27.4297 2.58923L26.1111 9.6487L27.6504 2.69903Z" fill="white" stroke="white"/>
<path d="M36.7547 5.4346L36.6782 5.3703L31.1696 11.9448L36.7547 5.4346Z" fill="white" stroke="white"/>
<path d="M36.4737 8.87722L36.3547 8.6662L32.1874 12.5008L36.4737 8.87722Z" fill="white" stroke="white"/>
<path d="M38.7537 9.34517L38.6572 9.12L33.0365 13.655L38.7537 9.34517Z" fill="white" stroke="white"/>
<path d="M41.5198 11.0197L41.4717 10.9326L33.9503 15.1171L41.5198 11.0197Z" fill="white" stroke="white"/>
<path d="M40.4984 13.9529L40.4636 13.7137L35.1857 15.8159L40.4984 13.9529Z" fill="white" stroke="white"/>
<path d="M42.8723 15.15L42.8638 14.9056L35.9755 17.1462L42.8723 15.15Z" fill="white" stroke="white"/>
<path d="M30.8246 2.03064L30.7317 1.99323L27.5752 9.94351L30.8246 2.03064Z" fill="white" stroke="white"/>
<path d="M31.6445 5.38766L31.4648 5.22406L28.7173 10.1566L31.6445 5.38766Z" fill="white" stroke="white"/>
<path d="M33.9579 5.12635L33.7952 4.94232L29.8882 10.99L33.9579 5.12635Z" fill="white" stroke="white"/>
<path d="M44.3258 16.7432L44.3025 16.6469L35.9428 18.7613L44.3258 16.7432Z" fill="white" stroke="white"/>
<path d="M42.0555 19.3667L42.0857 19.1253L36.4355 19.8032L42.0555 19.3667Z" fill="white" stroke="white"/>
<path d="M43.6226 21.0844L43.6804 20.8323L36.4368 21.2312L43.6226 21.0844Z" fill="white" stroke="white"/>
<path d="M45.5145 23.3215L45.5166 23.1888L36.8899 23.1557L45.5145 23.3215Z" fill="white" stroke="white"/>
<path d="M42.6355 25.2722L42.7266 25.0447L37.0942 24.2584L42.6355 25.2722Z" fill="white" stroke="white"/>
<path d="M43.7034 27.321L43.8198 27.1027L36.723 25.6375L43.7034 27.321Z" fill="white" stroke="white"/>
<path d="M44.8309 29.6374L44.8591 29.5421L36.5525 27.2348L44.8309 29.6374Z" fill="white" stroke="white"/>
<path d="M41.5405 30.784L41.6868 30.5905L36.4535 28.3815L41.5405 30.784Z" fill="white" stroke="white"/>
<path d="M42.0366 33.0366L42.2051 32.8578L35.7343 29.6192L42.0366 33.0366Z" fill="white" stroke="white"/>
<path d="M41.9409 36.1181L41.999 36.0377L34.9322 31.1369L41.9409 36.1181Z" fill="white" stroke="white"/>
<path d="M38.4533 36.1215L38.655 35.9874L34.4554 32.1863L38.4533 36.1215Z" fill="white" stroke="white"/>
<path d="M38.1684 38.4097L38.3862 38.2968L33.3631 33.1184L38.1684 38.4097Z" fill="white" stroke="white"/>
<path d="M38.5683 40.8983L38.6406 40.8301L32.6325 34.6992L38.5683 40.8983Z" fill="white" stroke="white"/>
<path d="M35.1426 40.2511L35.3662 40.157L31.9647 35.641L35.1426 40.2511Z" fill="white" stroke="white"/>
<path d="M34.4273 42.4451L34.6626 42.3748L30.7143 36.3527L34.4273 42.4451Z" fill="white" stroke="white"/>
<path d="M33.3626 44.3554L33.4514 44.3092L29.35 36.7938L33.3626 44.3554Z" fill="white" stroke="white"/>
<path d="M29.7247 42.2069L29.967 42.1764L27.9313 36.9164L29.7247 42.2069Z" fill="white" stroke="white"/>
<path d="M28.4347 44.1262L28.6819 44.1218L26.5329 37.2652L28.4347 44.1262Z" fill="white" stroke="white"/>
<path d="M26.3902 45.4894L26.4893 45.4659L24.3539 37.1892L26.3902 45.4894Z" fill="white" stroke="white"/>
<path d="M23.7334 43.2413L23.9861 43.27L23.3014 37.6777L23.7334 43.2413Z" fill="white" stroke="white"/>
<path d="M21.9852 44.7929L22.2622 44.8485L21.8593 37.6794L21.9852 44.7929Z" fill="white" stroke="white"/>
<path d="M21.5855 3.8038L21.8191 3.72986L22.2219 9.34861L21.5855 3.8038Z" fill="white" stroke="white"/>
<path d="M19.596 2.60589L19.8225 2.50635L20.8061 9.61894L19.596 2.60589Z" fill="white" stroke="white"/>
<path d="M10.7305 4.73485L10.8159 4.68213L15.3025 11.9782L10.7305 4.73485Z" fill="white" stroke="white"/>
<path d="M10.4952 8.17104L10.6538 7.98962L13.1141 11.1369L10.4952 8.17104Z" fill="white" stroke="white"/>
<path d="M8.18542 8.32261L8.30908 8.10797L13.8469 14.052L8.18542 8.32261Z" fill="white" stroke="white"/>
<path d="M5.7797 10.232L5.83936 10.1519L11.9337 14.7137L5.7797 10.232Z" fill="white" stroke="white"/>
<path d="M6.85295 13.5175L6.92139 13.2853L11.7186 15.9903L6.85295 13.5175Z" fill="white" stroke="white"/>
<path d="M4.7472 14.4949L4.78638 14.2522L11.6331 17.525L4.7472 14.4949Z" fill="white" stroke="white"/>
<path d="M16.7421 2.1632L16.8391 2.13568L19.1287 10.3716L16.7421 2.1632Z" fill="white" stroke="white"/>
<path d="M15.5687 5.41573L15.7656 5.27173L17.97 10.464L15.5687 5.41573Z" fill="white" stroke="white"/>
<path d="M13.2961 4.9139L13.4783 4.7478L16.7167 11.1703L13.2961 4.9139Z" fill="white" stroke="white"/>
<path d="M2.32017 16.3208L2.34912 16.226L10.5715 18.8144L2.32017 16.3208Z" fill="white" stroke="white"/>
<path d="M4.43401 19.0682L4.41821 18.827L10.0187 19.8264L4.43401 19.0682Z" fill="white" stroke="white"/>
<path d="M2.77023 20.6823L2.72754 20.4401L9.93355 21.2519L2.77023 20.6823Z" fill="white" stroke="white"/>
<path d="M1.48572 23.2687L1.48364 23.1361L10.1103 23.1029L1.48572 23.2687Z" fill="white" stroke="white"/>
<path d="M4.3647 25.2195L4.27368 24.992L9.90602 24.2057L4.3647 25.2195Z" fill="white" stroke="white"/>
<path d="M3.29681 27.2683L3.18042 27.0499L10.2772 25.5848L3.29681 27.2683Z" fill="white" stroke="white"/>
<path d="M2.22548 29.836L2.19727 29.7407L10.5039 27.4335L2.22548 29.836Z" fill="white" stroke="white"/>
<path d="M5.51587 30.9827L5.36963 30.7892L10.6029 28.5802L5.51587 30.9827Z" fill="white" stroke="white"/>
<path d="M5.01981 33.2353L4.85132 33.0565L11.3221 29.8179L5.01981 33.2353Z" fill="white" stroke="white"/>
<path d="M5.14292 35.7843L5.09106 35.6997L12.5116 31.3417L5.14292 35.7843Z" fill="white" stroke="white"/>
<path d="M7.9218 36.9582L7.73071 36.8094L12.2083 33.3333L7.9218 36.9582Z" fill="white" stroke="white"/>
<path d="M8.72996 38.3516L8.52124 38.2227L13.925 33.4349L8.72996 38.3516Z" fill="white" stroke="white"/>
<path d="M9.42756 40.1474L9.35327 40.0813L15.1858 33.7864L9.42756 40.1474Z" fill="white" stroke="white"/>
<path d="M12.8334 39.4055L12.6072 39.3177L15.8798 34.7093L12.8334 39.4055Z" fill="white" stroke="white"/>
<path d="M13.6105 41.5789L13.3733 41.5151L17.1499 35.3861L13.6105 41.5789Z" fill="white" stroke="white"/>
<path d="M14.5258 43.704L14.4377 43.6564L18.6638 36.2089L14.5258 43.704Z" fill="white" stroke="white"/>
<path d="M17.671 42.2111L17.4294 42.1767L19.5525 36.9506L17.671 42.2111Z" fill="white" stroke="white"/>
<path d="M18.929 44.1513L18.6821 44.1428L20.945 37.3222L18.929 44.1513Z" fill="white" stroke="white"/>
<path d="M19.2565 34.9694V19.2759H21.2627V30.6984L29.2876 24.2422L19.0559 14.0117V11.4292L32.0963 24.2422L19.2565 34.9694Z" fill="white" stroke="black"/>
</svg>
