<svg width="144" height="45" viewBox="0 0 144 45" fill="none" xmlns="http://www.w3.org/2000/svg">
<path d="M55.7617 32V14.8125H60.9961L62.4414 25.291L63.877 14.8125H69.1602V32H66.0156V19.6172L64.043 32H60.957L58.8672 19.6172V32H55.7617ZM73.4473 32.1562C72.666 32.1562 72.0671 31.9935 71.6504 31.668C71.2402 31.3424 70.9603 30.89 70.8105 30.3105C70.6608 29.7246 70.5859 29.041 70.5859 28.2598V17.3516H74.1016V27.8496C74.1016 28.4355 74.1471 28.8457 74.2383 29.0801C74.3294 29.3079 74.5443 29.4219 74.8828 29.4219C75.2474 29.4219 75.4753 29.2591 75.5664 28.9336C75.6641 28.6081 75.7129 28.1882 75.7129 27.6738V17.3516H79.1992V32H75.7031V30.4375C75.4818 30.9974 75.2148 31.4238 74.9023 31.7168C74.5964 32.0098 74.1113 32.1562 73.4473 32.1562ZM84.6191 32.1562C81.7285 32.1562 80.2832 30.6914 80.2832 27.7617V26.5996H83.7988V28.3184C83.7988 28.6504 83.8639 28.9108 83.9941 29.0996C84.1243 29.2884 84.3327 29.3828 84.6191 29.3828C85.127 29.3828 85.3809 29.002 85.3809 28.2402C85.3809 27.6022 85.2474 27.127 84.9805 26.8145C84.7135 26.4954 84.388 26.1895 84.0039 25.8965L82.1387 24.4609C81.5527 24.0052 81.1068 23.5234 80.8008 23.0156C80.4948 22.5078 80.3418 21.8014 80.3418 20.8965C80.3418 20.0566 80.5404 19.3633 80.9375 18.8164C81.3411 18.2695 81.8717 17.8626 82.5293 17.5957C83.1934 17.3288 83.9095 17.1953 84.6777 17.1953C87.5163 17.1953 88.9355 18.6113 88.9355 21.4434V21.7168H85.3223V21.1602C85.3223 20.8672 85.2702 20.584 85.166 20.3105C85.0684 20.0371 84.873 19.9004 84.5801 19.9004C84.0853 19.9004 83.8379 20.1608 83.8379 20.6816C83.8379 21.209 84.0462 21.6224 84.4629 21.9219L86.6309 23.5039C87.3079 23.9922 87.8743 24.5716 88.3301 25.2422C88.7923 25.9128 89.0234 26.8047 89.0234 27.918C89.0234 29.2982 88.6296 30.3496 87.8418 31.0723C87.0605 31.7949 85.9863 32.1562 84.6191 32.1562ZM90.0781 16.4531V13.543H93.5742V16.4531H90.0781ZM90.0781 32V17.3516H93.5742V32H90.0781ZM99.3652 32.1562C97.7246 32.1562 96.5592 31.7363 95.8691 30.8965C95.1855 30.0566 94.8438 28.8229 94.8438 27.1953V22.6836C94.8438 21.4596 94.974 20.4408 95.2344 19.627C95.4948 18.8132 95.9505 18.2044 96.6016 17.8008C97.2526 17.3971 98.1576 17.1953 99.3164 17.1953C100.124 17.1953 100.846 17.3385 101.484 17.625C102.129 17.9115 102.637 18.3314 103.008 18.8848C103.379 19.4382 103.564 20.1152 103.564 20.916V23.1523H100V21.1016C100 20.763 99.9512 20.4798 99.8535 20.252C99.7559 20.0176 99.5443 19.9004 99.2188 19.9004C98.6458 19.9004 98.3594 20.3073 98.3594 21.1211V28.2207C98.3594 28.5202 98.4245 28.7969 98.5547 29.0508C98.6849 29.2982 98.8997 29.4219 99.1992 29.4219C99.5052 29.4219 99.7168 29.3014 99.834 29.0605C99.9577 28.8132 100.02 28.5267 100.02 28.2012V25.7402H103.564V28.2988C103.564 29.1061 103.382 29.7995 103.018 30.3789C102.66 30.9518 102.165 31.3913 101.533 31.6973C100.902 32.0033 100.179 32.1562 99.3652 32.1562ZM108.926 32.1562C107.357 32.1562 106.224 31.7656 105.527 30.9844C104.837 30.2031 104.492 28.9596 104.492 27.2539V25.5742H107.891V27.7227C107.891 28.1198 107.949 28.4323 108.066 28.6602C108.19 28.8815 108.402 28.9922 108.701 28.9922C109.014 28.9922 109.229 28.901 109.346 28.7188C109.469 28.5365 109.531 28.237 109.531 27.8203C109.531 27.293 109.479 26.8535 109.375 26.502C109.271 26.1439 109.089 25.8053 108.828 25.4863C108.574 25.1608 108.219 24.7832 107.764 24.3535L106.221 22.8887C105.068 21.8014 104.492 20.5579 104.492 19.1582C104.492 17.6934 104.831 16.5768 105.508 15.8086C106.191 15.0404 107.178 14.6562 108.467 14.6562C110.042 14.6562 111.159 15.0762 111.816 15.916C112.48 16.7559 112.812 18.0319 112.812 19.7441H109.316V18.5625C109.316 18.3281 109.248 18.1458 109.111 18.0156C108.981 17.8854 108.802 17.8203 108.574 17.8203C108.301 17.8203 108.099 17.8984 107.969 18.0547C107.845 18.2044 107.783 18.3997 107.783 18.6406C107.783 18.8815 107.848 19.1419 107.979 19.4219C108.109 19.7018 108.366 20.0241 108.75 20.3887L110.732 22.293C111.13 22.6706 111.494 23.071 111.826 23.4941C112.158 23.9108 112.425 24.3991 112.627 24.959C112.829 25.5124 112.93 26.1895 112.93 26.9902C112.93 28.6048 112.63 29.8711 112.031 30.7891C111.439 31.7005 110.404 32.1562 108.926 32.1562ZM113.74 34.4414V32.2246H115.42C115.674 32.2246 115.801 32.1367 115.801 31.9609C115.801 31.8698 115.791 31.7754 115.771 31.6777L113.477 17.3516H116.826L117.803 28.1328L118.955 17.3516H122.324L119.609 32.7617C119.512 33.3151 119.323 33.7318 119.043 34.0117C118.77 34.2982 118.317 34.4414 117.686 34.4414H113.74ZM123.242 32V17.3516H126.738V19.2168C126.868 18.6569 127.109 18.1816 127.461 17.791C127.819 17.3939 128.314 17.1953 128.945 17.1953C129.961 17.1953 130.697 17.5078 131.152 18.1328C131.615 18.7578 131.846 19.6139 131.846 20.7012V32H128.398V21.0625C128.398 20.776 128.34 20.5124 128.223 20.2715C128.105 20.0241 127.904 19.9004 127.617 19.9004C127.35 19.9004 127.152 19.9948 127.021 20.1836C126.898 20.3659 126.82 20.597 126.787 20.877C126.755 21.1504 126.738 21.4238 126.738 21.6973V32H123.242ZM137.627 32.1562C135.986 32.1562 134.821 31.7363 134.131 30.8965C133.447 30.0566 133.105 28.8229 133.105 27.1953V22.6836C133.105 21.4596 133.236 20.4408 133.496 19.627C133.757 18.8132 134.212 18.2044 134.863 17.8008C135.514 17.3971 136.419 17.1953 137.578 17.1953C138.385 17.1953 139.108 17.3385 139.746 17.625C140.391 17.9115 140.898 18.3314 141.27 18.8848C141.641 19.4382 141.826 20.1152 141.826 20.916V23.1523H138.262V21.1016C138.262 20.763 138.213 20.4798 138.115 20.252C138.018 20.0176 137.806 19.9004 137.48 19.9004C136.908 19.9004 136.621 20.3073 136.621 21.1211V28.2207C136.621 28.5202 136.686 28.7969 136.816 29.0508C136.947 29.2982 137.161 29.4219 137.461 29.4219C137.767 29.4219 137.979 29.3014 138.096 29.0605C138.219 28.8132 138.281 28.5267 138.281 28.2012V25.7402H141.826V28.2988C141.826 29.1061 141.644 29.7995 141.279 30.3789C140.921 30.9518 140.426 31.3913 139.795 31.6973C139.163 32.0033 138.441 32.1562 137.627 32.1562Z" fill="white"/>
<path d="M15.3231 42V16.6667H18.5538V35.1055L31.4769 24.6835L15 8.16878V4L36 24.6835L15.3231 42Z" fill="white" stroke="black"/>
</svg>
