<svg width="100" height="101" viewBox="0 0 100 101" fill="none" xmlns="http://www.w3.org/2000/svg">
<path d="M50.1553 1L49.9324 1L50.1553 19.9822L50.1553 1Z" fill="white" stroke="white"/>
<path d="M54.6813 7.23088L54.1731 7.04303L52.6867 19.4741L54.6813 7.23088Z" fill="white" stroke="white"/>
<path d="M59.2227 4.77554L58.7322 4.53156L55.8019 20.2193L59.2227 4.77554Z" fill="white" stroke="white"/>
<path d="M79.4548 10.8548L79.2849 10.7119L67.0436 25.3219L79.4548 10.8548Z" fill="white" stroke="white"/>
<path d="M78.8304 18.5049L78.5659 18.036L69.3053 26.5574L78.8304 18.5049Z" fill="white" stroke="white"/>
<path d="M83.8969 19.5449L83.6826 19.0445L71.1922 29.1223L83.8969 19.5449Z" fill="white" stroke="white"/>
<path d="M90.0432 23.266L89.9363 23.0723L73.2222 32.3713L90.0432 23.266Z" fill="white" stroke="white"/>
<path d="M87.7738 29.7842L87.6965 29.2526L75.9678 33.9241L87.7738 29.7842Z" fill="white" stroke="white"/>
<path d="M93.0491 32.4444L93.03 31.9012L77.7228 36.8804L93.0491 32.4444Z" fill="white" stroke="white"/>
<path d="M66.2763 3.29035L66.0698 3.20721L59.0555 20.8745L66.2763 3.29035Z" fill="white" stroke="white"/>
<path d="M68.0985 10.7504L67.6992 10.3868L61.5935 21.348L68.0985 10.7504Z" fill="white" stroke="white"/>
<path d="M73.2395 10.1696L72.8779 9.76068L64.1958 23.2001L73.2395 10.1696Z" fill="white" stroke="white"/>
<path d="M96.2793 35.9848L96.2275 35.7707L77.6505 40.4694L96.2793 35.9848Z" fill="white" stroke="white"/>
<path d="M91.2341 41.8149L91.3013 41.2785L78.7454 42.785L91.2341 41.8149Z" fill="white" stroke="white"/>
<path d="M94.7164 45.632L94.845 45.0717L78.748 45.9583L94.7164 45.632Z" fill="white" stroke="white"/>
<path d="M98.9207 50.6032L98.9253 50.3084L79.7548 50.2348L98.9207 50.6032Z" fill="white" stroke="white"/>
<path d="M92.5228 54.9383L92.7251 54.4327L80.2088 52.6853L92.5228 54.9383Z" fill="white" stroke="white"/>
<path d="M94.8961 59.4911L95.1548 59.0059L79.3841 55.7501L94.8961 59.4911Z" fill="white" stroke="white"/>
<path d="M97.4012 64.6386L97.4639 64.4268L79.0046 59.2995L97.4012 64.6386Z" fill="white" stroke="white"/>
<path d="M90.0896 67.1867L90.4146 66.7567L78.7851 61.8479L90.0896 67.1867Z" fill="white" stroke="white"/>
<path d="M91.1917 72.1925L91.5662 71.795L77.1866 64.5983L91.1917 72.1925Z" fill="white" stroke="white"/>
<path d="M90.9793 79.0402L91.1084 78.8615L75.4044 67.971L90.9793 79.0402Z" fill="white" stroke="white"/>
<path d="M83.2291 79.0478L83.6775 78.7499L74.345 70.3029L83.2291 79.0478Z" fill="white" stroke="white"/>
<path d="M82.5958 84.1326L83.0798 83.8817L71.9174 72.3743L82.5958 84.1326Z" fill="white" stroke="white"/>
<path d="M83.4847 89.663L83.6455 89.5115L70.2941 75.8873L83.4847 89.663Z" fill="white" stroke="white"/>
<path d="M75.8723 88.2246L76.3691 88.0156L68.8102 77.9801L75.8723 88.2246Z" fill="white" stroke="white"/>
<path d="M74.2828 93.1003L74.8057 92.9441L66.0317 79.5615L74.2828 93.1003Z" fill="white" stroke="white"/>
<path d="M71.9161 97.3454L72.1135 97.2427L62.9992 80.5417L71.9161 97.3454Z" fill="white" stroke="white"/>
<path d="M63.8324 92.5709L64.3708 92.5031L59.847 80.8142L63.8324 92.5709Z" fill="white" stroke="white"/>
<path d="M60.9656 96.8361L61.5149 96.8262L56.7395 81.5893L60.9656 96.8361Z" fill="white" stroke="white"/>
<path d="M56.4222 99.8654L56.6423 99.8131L51.897 81.4205L56.4222 99.8654Z" fill="white" stroke="white"/>
<path d="M50.5184 94.8695L51.0798 94.9334L49.5584 82.5061L50.5184 94.8695Z" fill="white" stroke="white"/>
<path d="M46.6335 98.3177L47.249 98.4411L46.3537 82.5098L46.6335 98.3177Z" fill="white" stroke="white"/>
<path d="M45.745 7.23053L46.2642 7.06622L47.1592 19.5523L45.745 7.23053Z" fill="white" stroke="white"/>
<path d="M41.3242 4.56856L41.8276 4.34735L44.0133 20.1531L41.3242 4.56856Z" fill="white" stroke="white"/>
<path d="M21.6231 9.29946L21.813 9.18231L31.7832 25.3958L21.6231 9.29946Z" fill="white" stroke="white"/>
<path d="M21.0999 16.9355L21.4524 16.5323L26.9198 23.5262L21.0999 16.9355Z" fill="white" stroke="white"/>
<path d="M15.9671 17.2723L16.2419 16.7953L28.5483 30.0042L15.9671 17.2723Z" fill="white" stroke="white"/>
<path d="M10.6211 21.5156L10.7537 21.3375L24.2967 31.4748L10.6211 21.5156Z" fill="white" stroke="white"/>
<path d="M13.0059 28.8167L13.158 28.3007L23.8185 34.3116L13.0059 28.8167Z" fill="white" stroke="white"/>
<path d="M8.32651 30.9887L8.41357 30.4493L23.6285 37.7223L8.32651 30.9887Z" fill="white" stroke="white"/>
<path d="M34.9822 3.58484L35.1978 3.52368L40.2856 21.8258L34.9822 3.58484Z" fill="white" stroke="white"/>
<path d="M32.3743 10.8127L32.812 10.4927L37.7106 22.0311L32.3743 10.8127Z" fill="white" stroke="white"/>
<path d="M27.3242 9.69754L27.729 9.32843L34.9256 23.6007L27.3242 9.69754Z" fill="white" stroke="white"/>
<path d="M2.93322 35.0461L2.99756 34.8354L21.2696 40.5873L2.93322 35.0461Z" fill="white" stroke="white"/>
<path d="M7.63081 41.1515L7.5957 40.6155L20.0411 42.8364L7.63081 41.1515Z" fill="white" stroke="white"/>
<path d="M3.9335 44.7382L3.83862 44.2001L19.852 46.0041L3.9335 44.7382Z" fill="white" stroke="white"/>
<path d="M1.07933 50.486L1.07471 50.1912L20.2452 50.1176L1.07933 50.486Z" fill="white" stroke="white"/>
<path d="M7.47718 54.8211L7.2749 54.3156L19.7912 52.5681L7.47718 54.8211Z" fill="white" stroke="white"/>
<path d="M5.10387 59.3739L4.84521 58.8887L20.6159 55.6329L5.10387 59.3739Z" fill="white" stroke="white"/>
<path d="M2.72334 65.08L2.66064 64.8682L21.1199 59.741L2.72334 65.08Z" fill="white" stroke="white"/>
<path d="M10.0349 67.6281L9.70996 67.1981L21.3394 62.2893L10.0349 67.6281Z" fill="white" stroke="white"/>
<path d="M8.93277 72.6339L8.55835 72.2365L22.9379 65.0397L8.93277 72.6339Z" fill="white" stroke="white"/>
<path d="M9.2063 78.2983L9.09106 78.1105L25.5812 68.4259L9.2063 78.2983Z" fill="white" stroke="white"/>
<path d="M15.3817 80.9072L14.957 80.5765L24.9072 72.8518L15.3817 80.9072Z" fill="white" stroke="white"/>
<path d="M17.1774 84.0036L16.7136 83.717L28.722 73.0776L17.1774 84.0036Z" fill="white" stroke="white"/>
<path d="M18.7271 87.9942L18.562 87.8472L31.5233 73.8586L18.7271 87.9942Z" fill="white" stroke="white"/>
<path d="M26.2961 86.3455L25.7935 86.1503L33.066 75.9095L26.2961 86.3455Z" fill="white" stroke="white"/>
<path d="M28.0225 91.1752L27.4954 91.0336L35.8878 77.4134L28.0225 91.1752Z" fill="white" stroke="white"/>
<path d="M30.0569 95.8978L29.8613 95.7919L39.2526 79.242L30.0569 95.8978Z" fill="white" stroke="white"/>
<path d="M37.0467 92.5802L36.5098 92.5037L41.2276 80.8901L37.0467 92.5802Z" fill="white" stroke="white"/>
<path d="M39.842 96.8917L39.2935 96.8728L44.322 81.7159L39.842 96.8917Z" fill="white" stroke="white"/>
<path d="M40.5701 76.4874V41.6131H45.0283V66.9963L62.8613 52.6493L40.1243 29.9148V24.176L69.1029 52.6493L40.5701 76.4874Z" fill="white" stroke="black"/>
</svg>
